<?xml version="1.0" standalone="no"?>
<!DOCTYPE svg PUBLIC "-//W3C//DTD SVG 20010904//EN"
 "http://www.w3.org/TR/2001/REC-SVG-20010904/DTD/svg10.dtd">
<svg version="1.0" xmlns="http://www.w3.org/2000/svg"
 width="512.000000pt" height="512.000000pt" viewBox="0 0 512.000000 512.000000"
 preserveAspectRatio="xMidYMid meet">

<g transform="translate(0.000000,512.000000) scale(0.100000,-0.100000)"
fill="#000000" stroke="none">
<path d="M1130 5108 c-280 -19 -588 -154 -787 -343 -41 -40 -63 -68 -63 -83 0
-28 42 -72 69 -72 10 0 51 26 89 58 258 216 491 305 797 305 428 0 737 -191
849 -524 45 -133 87 -442 101 -744 11 -245 -21 -622 -81 -935 -9 -50 -16 -145
-17 -230 -2 -129 0 -150 19 -190 35 -72 78 -124 135 -162 88 -59 137 -68 351
-68 175 0 189 1 208 20 26 26 26 72 -1 96 -19 17 -43 20 -223 24 -224 6 -235
8 -298 78 -53 59 -62 96 -54 237 3 66 15 165 25 220 53 280 72 485 72 780 0
430 -53 810 -136 992 -174 380 -555 575 -1055 541z"/>
<path d="M3658 5095 c-172 -33 -360 -108 -497 -199 -95 -64 -211 -164 -221
-192 -19 -48 26 -103 73 -90 12 3 54 33 92 67 170 148 372 243 594 280 85 14
287 14 372 0 230 -38 417 -128 616 -298 35 -29 72 -53 84 -53 27 0 69 44 69
72 0 30 -108 132 -215 203 -140 93 -275 153 -445 196 -112 28 -405 36 -522 14z"/>
<path d="M1130 4074 c-233 -36 -414 -118 -567 -261 -62 -58 -60 -86 15 -155
369 -341 962 -336 1325 11 61 58 63 89 10 138 -146 136 -329 226 -528 258 -83
14 -195 17 -255 9z m231 -144 c29 -6 57 -16 61 -23 14 -19 2 -97 -19 -125 -95
-127 -283 -67 -283 90 0 24 5 49 12 56 15 15 154 16 229 2z m-381 -70 c0 -87
58 -188 138 -239 171 -109 401 -10 443 191 6 29 12 54 14 56 7 7 204 -116 205
-128 0 -10 -127 -90 -190 -119 -117 -55 -210 -74 -355 -74 -145 0 -238 19
-355 74 -68 31 -190 109 -190 121 0 20 243 156 283 158 4 0 7 -18 7 -40z"/>
<path d="M3720 4065 c-192 -36 -370 -125 -507 -253 -62 -58 -59 -85 15 -154
364 -336 950 -336 1314 0 76 71 78 97 11 159 -115 106 -281 195 -438 234 -106
27 -295 33 -395 14z m268 -137 c20 -20 14 -96 -10 -139 -72 -129 -270 -85
-285 62 -5 56 5 71 59 79 75 13 223 11 236 -2z m251 -64 c57 -26 191 -111 191
-122 0 -10 -116 -86 -177 -116 -28 -14 -91 -38 -140 -52 -77 -24 -105 -27
-228 -27 -123 0 -151 3 -228 27 -49 14 -112 38 -140 52 -56 28 -177 106 -177
114 1 11 186 130 204 130 1 0 9 -26 16 -57 65 -293 455 -322 561 -42 11 27 19
67 19 90 0 46 2 46 99 3z"/>
<path d="M142 3030 c-12 -12 -22 -28 -23 -38 -3 -97 5 -274 17 -390 129 -1250
908 -2276 1920 -2533 321 -81 687 -81 1008 0 415 106 803 345 1123 693 108
118 194 229 299 386 1 2 28 -15 60 -38 104 -73 119 -46 65 113 l-28 84 39 74
c248 467 396 1095 379 1611 -1 22 -39 58 -62 58 -9 0 -28 -9 -42 -20 -24 -19
-25 -26 -31 -147 -22 -448 -93 -792 -237 -1153 -44 -111 -108 -250 -114 -250
-3 0 -36 63 -74 139 -38 77 -97 181 -131 233 -104 155 -261 368 -271 368 -5 0
-65 -37 -134 -83 l-124 -83 54 -102 c133 -251 257 -424 428 -597 l118 -119
-48 -70 c-345 -507 -830 -856 -1353 -975 -270 -61 -570 -61 -840 0 -919 208
-1649 1089 -1839 2219 -22 132 -38 289 -47 473 -6 121 -7 128 -31 147 -33 25
-54 25 -81 0z"/>
<path d="M3339 2978 c-25 -8 -49 -44 -49 -72 0 -30 41 -66 75 -66 l33 0 -1
-92 c-2 -176 53 -282 168 -326 71 -27 120 -28 163 -2 68 42 91 129 53 200 -11
20 -57 63 -112 105 -62 46 -116 98 -161 153 -36 46 -69 83 -72 83 -3 0 -20 6
-38 13 -23 9 -41 10 -59 4z"/>
<path d="M1265 2520 c-24 -26 -23 -76 1 -100 47 -46 124 -15 124 50 0 62 -84
95 -125 50z"/>
<path d="M3753 2397 c-39 -23 -74 -45 -77 -48 -8 -7 85 -251 93 -247 30 14
230 145 231 151 0 11 -152 182 -165 184 -5 1 -42 -17 -82 -40z"/>
<path d="M2115 1559 c-137 -72 -258 -139 -269 -149 -39 -38 -10 -110 43 -110
14 0 126 52 248 115 121 63 226 115 232 115 7 0 45 -29 86 -65 57 -49 82 -65
105 -65 23 0 48 16 105 65 41 36 79 65 86 65 6 0 111 -52 232 -115 122 -63
234 -115 248 -115 53 0 82 72 43 110 -27 26 -517 280 -541 280 -11 0 -53 -29
-94 -65 -40 -36 -76 -65 -79 -65 -3 0 -39 29 -79 65 -42 37 -83 65 -95 65 -12
0 -133 -59 -271 -131z"/>
<path d="M1103 1568 c-12 -6 -27 -23 -33 -37 -30 -74 64 -136 118 -78 55 59
-13 151 -85 115z"/>
<path d="M2313 1078 c-45 -21 -47 -94 -4 -117 12 -7 105 -11 245 -11 213 0
227 1 246 20 20 20 26 65 12 86 -19 29 -55 34 -264 33 -128 0 -222 -5 -235
-11z"/>
</g>
</svg>
