<?xml version="1.0" standalone="no"?>
<!DOCTYPE svg PUBLIC "-//W3C//DTD SVG 20010904//EN"
 "http://www.w3.org/TR/2001/REC-SVG-20010904/DTD/svg10.dtd">
<svg version="1.0" xmlns="http://www.w3.org/2000/svg"
 width="128.000000pt" height="128.000000pt" viewBox="0 0 128.000000 128.000000"
 preserveAspectRatio="xMidYMid meet">

<g transform="translate(0.000000,128.000000) scale(0.100000,-0.100000)"
fill="#000000" stroke="none">
<path d="M512 1261 c-172 -59 -234 -218 -151 -383 l30 -59 -52 -71 c-78 -107
-94 -149 -93 -243 0 -73 3 -87 41 -163 27 -53 45 -108 53 -155 16 -100 28
-136 53 -152 27 -17 403 -20 456 -3 42 13 65 63 80 171 9 62 18 88 48 134 37
55 38 59 37 142 -2 107 -25 176 -96 284 l-52 79 29 52 c42 72 40 151 -4 241
-35 71 -74 106 -140 130 -59 20 -173 19 -239 -4z m242 -22 c6 -5 -9 -9 -42 -9
-76 0 -126 -24 -165 -79 -65 -89 -74 -161 -28 -233 16 -25 34 -49 40 -52 21
-13 11 -40 -50 -132 -85 -130 -91 -168 -48 -314 11 -35 27 -112 35 -170 16
-107 31 -148 67 -187 l20 -23 -42 0 c-79 0 -91 17 -116 169 -11 66 -27 114
-52 162 -34 65 -35 71 -31 151 5 95 40 185 97 250 17 20 31 44 31 54 0 11 -16
43 -36 73 -30 45 -36 62 -37 110 -1 65 17 107 72 164 42 45 77 65 134 77 47
10 137 4 151 -11z"/>
</g>
</svg>
